OpenSim_Sub06_CSBaseline_LCS.mot
version=1
nRows=57
nColumns=11
inDegrees=no
endheader
time	Bot_Shank	2nd_Bot_Shank	2nd_Top_Shank	Top_Shank	Bot_Thigh	Med_Thigh	Top_Thigh	BNOx	BNOy	BNOZ
42.46000000	10619.05471659	10748.14454129	10524.09370400	11232.10834995	13004.40413825	14140.57782997	14976.07733368	169.95621014	-67.37702023	-164.38069214
42.47000000	10618.07631207	10752.05513545	10510.61071285	11231.51549586	13002.25290733	14138.03657178	14975.54239814	169.01301448	-67.67972096	-165.13069388
42.48000000	10615.53556694	10755.10151274	10501.76565229	11230.83847892	12999.77420282	14136.28353304	14974.67999980	168.26920541	-67.95321571	-165.50101166
42.49000000	10611.77549965	10757.38051256	10496.94125319	11230.15557394	12996.96311843	14135.16538466	14973.56551884	167.68746367	-68.20027674	-165.50395585
42.50000000	10607.13985456	10758.98963761	10495.51495237	11229.54545653	12993.81453127	14134.52754898	14972.27457631	167.23021517	-68.42372087	-165.15430420
42.51000000	10601.97237605	10760.02639061	10496.86418663	11229.08680229	12990.32331847	14134.21544837	14970.88279324	166.85988582	-68.62636488	-164.46683448
42.52000000	10596.61680848	10760.58827428	10500.36639281	11228.85828684	12986.48435713	14134.07450517	14969.46579066	166.53890154	-68.81102559	-163.45632445
42.53000000	10591.41689622	10760.77279134	10505.39900771	11228.93858579	12982.29252439	14133.95014175	14968.09918962	166.22968825	-68.98051980	-162.13755187
42.54000000	10586.71638364	10760.67744450	10511.33946815	11229.40637475	12977.74269735	14133.68778045	14966.85861115	165.89467185	-69.13766430	-160.52529452
42.55000000	10582.85901511	10760.39973649	10517.56521095	11230.34032933	12972.82975314	14133.13284364	14965.81967628	165.49627827	-69.28527589	-158.63433015
42.56000000	10580.18853499	10760.03717001	10523.45367293	11231.81912514	12967.54856886	14132.13075366	14965.05800606	164.99693341	-69.42617139	-156.47943653
42.57000000	10578.96680898	10759.66083091	10528.44960856	11233.92974596	12961.97632539	14130.58975345	14964.63449490	164.36544836	-69.56184895	-154.07763767
42.58000000	10579.01283905	10759.19892201	10532.36187868	11236.80411259	12956.63536634	14128.75786849	14964.53038424	163.60517021	-69.68667456	-151.45810705
42.59000000	10579.99658329	10758.53155945	10535.12188258	11240.58926919	12952.19785297	14126.99747666	14964.70010861	162.73106899	-69.79261388	-148.65410700
42.60000000	10581.58788745	10757.53882311	10536.66111190	11245.43227135	12949.33605947	14125.67104202	14965.09808236	161.75812348	-69.87163077	-145.69890293
42.61000000	10583.45659728	10756.10079289	10536.91105826	11251.48017463	12948.72225998	14125.14102864	14965.67871983	160.70131246	-69.91568909	-142.62576027
42.62000000	10585.27255855	10754.09754869	10535.80321331	11258.88003458	12951.02872869	14125.76990055	14966.39643537	159.57561473	-69.91675270	-139.46794441
42.63000000	10586.70561701	10751.40917041	10533.26906867	11267.77890679	12956.92773976	14127.92012182	14967.20564332	158.39600907	-69.86678544	-136.25872077
42.64000000	10587.42561842	10747.91573794	10529.24011599	11278.32384682	12967.09156735	14131.95415650	14968.06075802	157.17747427	-69.75775119	-133.03135477
42.65000000	10587.10240855	10743.49733119	10523.64784689	11290.66191023	12982.19248563	14138.23446866	14968.91619381	155.93498910	-69.58161380	-129.81911181
42.66000000	10585.46737238	10738.04215224	10516.45798505	11304.87762910	13002.69381632	14147.05939393	14969.72961547	154.68165513	-69.33128815	-126.65279609
42.67000000	10582.58474711	10731.48233438	10507.82140775	11320.71735968	13027.92870348	14158.38041157	14970.47626865	153.42042028	-69.00483301	-123.54989960
42.68000000	10578.63078993	10723.76479577	10497.95130490	11337.81364659	13056.84993465	14172.03226778	14971.13731577	152.15081538	-68.60203828	-120.52343417
42.69000000	10573.78184242	10714.83646569	10487.06091338	11355.79894868	13088.41001074	14187.84962080	14971.69392370	150.87236864	-68.12269518	-117.58640825
42.70000000	10568.21424619	10704.64427342	10475.36347008	11374.30572481	13121.56143267	14205.66712884	14972.12725931	149.58460828	-67.56659493	-114.75183029
42.71000000	10562.10434285	10693.13514825	10463.07221187	11392.96643384	13155.25670134	14225.31945016	14972.41848948	148.28706255	-66.93352874	-112.03270874
42.72000000	10555.62847398	10680.25601948	10450.40037564	11411.41353461	13188.44831766	14246.64124296	14972.54878109	146.97925965	-66.22328783	-109.44205206
42.73000000	10548.96298119	10665.95381638	10437.56119825	11429.27948598	13220.08878256	14269.46716550	14972.49930100	145.66072783	-65.43566342	-106.99286869
42.74000000	10542.28420608	10650.17546824	10424.76791660	11446.19674680	13249.13059694	14293.63187600	14972.25121611	144.33099530	-64.57044673	-104.69816710
42.75000000	10535.76849025	10632.86790436	10412.23376756	11461.79777593	13274.52626171	14318.97003269	14971.78569327	142.98959029	-63.62742896	-102.57095572
42.76000000	10529.59217530	10613.97805401	10400.17198801	11475.71503221	13295.22827779	14345.31629380	14971.08389937	141.63604102	-62.60640134	-100.62424302
42.77000000	10523.92386042	10593.60667455	10388.91422083	11487.73089340	13310.42054221	14372.44572390	14970.15597228	140.27418720	-61.51312159	-98.86583718
42.78000000	10518.89026796	10572.68654530	10379.43254074	11498.43861540	13320.53852263	14399.81105851	14969.16874753	138.93118829	-60.38561891	-97.27541934
42.79000000	10514.60402673	10552.43045909	10372.91455712	11508.70435173	13326.43889748	14426.75655469	14968.34179663	137.64205193	-59.27278336	-95.82320460
42.80000000	10511.17775496	10534.05141975	10370.54804177	11519.39446157	13328.97866259	14452.62638777	14967.89473081	136.44179169	-58.22351316	-94.47940091
42.81000000	10508.72407085	10518.76243112	10373.52076648	11531.37530410	13329.01481383	14476.76473306	14968.04716131	135.36542111	-57.28670655	-93.21421623
42.82000000	10507.35559262	10507.77649703	10383.02050305	11545.51323849	13327.40434704	14498.51576588	14969.01869936	134.44795375	-56.51126176	-91.99785853
42.83000000	10507.18493847	10502.30662132	10400.23502327	11562.67462392	13325.00425807	14517.22366153	14971.02895620	133.72440318	-55.94607702	-90.80053577
42.84000000	10508.32472662	10503.56580782	10426.35209894	11583.72581957	13322.67154278	14532.23259535	14974.29754306	133.22978294	-55.64005057	-89.59245590
42.85000000	10510.88757528	10512.76706037	10462.55950185	11609.53318462	13321.26319700	14542.88674263	14979.04407118	132.99910659	-55.64208062	-88.34382688
42.86000000	10514.98610267	10531.12338279	10510.04500381	11640.96307824	13321.63621660	14548.53027870	14985.48815179	133.06738769	-56.00106543	-87.02485668
42.87000000	10520.63294135	10559.32314409	10569.30937464	11678.44132912	13324.34675857	14548.57810423	14993.62060079	133.46437133	-56.75458321	-85.67178194
42.88000000	10527.10176741	10594.17733387	10635.77601042	11719.13797027	13327.72759284	14542.96782445	15001.74129355	134.18086529	-57.85655033	-84.80883248
42.89000000	10533.33505448	10630.75908884	10702.59261321	11758.76377748	13329.11496063	14531.87132231	15007.39222086	135.19022554	-59.22338566	-85.17895814
42.90000000	10538.27371394	10664.13334828	10762.89615070	11793.02264323	13325.84040257	14515.46158586	15008.11179860	136.46572573	-60.77133118	-87.52614046
42.91000000	10540.85865712	10689.36505146	10809.82359058	11817.61845999	13315.23545930	14493.91160315	15001.43844264	137.98063953	-62.41662890	-92.59436095
42.92000000	10540.17734657	10702.12776731	10837.37859327	11828.78575285	13295.01387825	14467.45340915	14985.27138069	139.70960257	-64.07991199	-100.97049707
42.93000000	10536.40034966	10702.59321822	10845.97022028	11826.68075341	13265.71415398	14436.75543257	14960.17646544	141.63731649	-65.71426735	-112.08032900
42.94000000	10530.18368455	10692.94921228	10838.87845282	11813.21741378	13229.14084106	14402.68169510	14927.91473874	143.75299453	-67.28732768	-124.82922965
42.95000000	10522.18565929	10675.39306741	10819.39681421	11790.31797716	13187.10446606	14366.09714101	14890.25288017	146.04587122	-68.76679435	-138.12011721
42.96000000	10513.06458189	10652.12210152	10790.81882774	11759.90468678	13141.41555555	14327.86671461	14848.95756928	148.50518106	-70.12036867	-150.85590986
42.97000000	10503.47876038	10625.33363255	10756.43801670	11723.89978587	13093.88463608	14288.85536017	14805.79548562	151.12015859	-71.31575199	-161.93952577
42.98000000	10494.08650279	10597.22497840	10719.54790441	11684.22551764	13046.32223422	14249.92802197	14762.53330876	153.88003833	-72.32064565	-170.27388311
42.99000000	10485.54611716	10569.99345702	10683.44201416	11642.80412532	13000.53887653	14211.94964432	14720.93771826	156.77405479	-73.10275098	-174.76190007
43.00000000	10478.51591151	10545.83638631	10651.41386924	11601.55785212	12958.34508957	14175.78517148	14682.77539368	159.79144250	-73.62976933	-174.30649482
43.01000000	10473.65419386	10526.95108421	10626.75699297	11562.40894128	12921.55139992	14142.29954775	14649.81301456	162.92143597	-73.86940202	-167.81058554
43.02000000	10471.51326341	10515.25663714	10612.36189444	11527.10190635	12891.75633724	14112.28278528	14623.63673283	166.14919880	-73.79644450	-154.37545464
